<svg width="858px" height="250px"
 viewBox="0.00 0.00 857.80 249.80" xmlns="http://www.w3.org/2000/svg" xmlns:xlink="http://www.w3.org/1999/xlink">
<g id="graph0" class="graph" transform="scale(1.0 1.0) rotate(0) translate(14.4 235.4)">
<title>dev.arunkumar.dagger.validator.di.TridentComponent</title>
<polygon fill="white" stroke="none" points="-14.4,14.4 -14.4,-235.4 843.4,-235.4 843.4,14.4 -14.4,14.4"/>
<text text-anchor="middle" x="61.5" y="-7.8" font-family="Times New Roman,serif" font-size="14.00">TridentComponent</text>
<g id="clust1" class="cluster"><title>cluster_Entry Points</title>
<polygon fill="none" stroke="black" points="7,-50 7,-125 93,-125 93,-50 7,-50"/>
<text text-anchor="middle" x="50" y="-109.8" font-family="Times New Roman,serif" font-size="14.00">Entry Points</text>
</g>
<g id="clust2" class="cluster"><title>cluster_Dependency Graph</title>
<polygon fill="none" stroke="black" points="105,-31 105,-213 821,-213 821,-31 105,-31"/>
<text text-anchor="middle" x="167.5" y="-197.8" font-family="Times New Roman,serif" font-size="14.00">Dependency Graph</text>
</g>
<g id="clust3" class="cluster"><title>cluster_Set&lt;Validation&gt;</title>
<path fill="none" stroke="black" d="M125,-107C125,-107 448,-107 448,-107 454,-107 460,-113 460,-119 460,-119 460,-170 460,-170 460,-176 454,-182 448,-182 448,-182 125,-182 125,-182 119,-182 113,-176 113,-170 113,-170 113,-119 113,-119 113,-113 119,-107 125,-107"/>
<text text-anchor="middle" x="286.5" y="-166.8" font-family="Times New Roman,serif" font-size="14.00">Set&lt;Validation&gt;</text>
</g>
<!-- b3215431&#45;8ea0&#45;48ca&#45;867f&#45;8ab0b4cfc161 -->
<g id="node1" class="node"><title>b3215431&#45;8ea0&#45;48ca&#45;867f&#45;8ab0b4cfc161</title>
<polygon fill="turquoise" stroke="turquoise" stroke-width="2" points="84,-94 16,-94 16,-90 12,-90 12,-86 16,-86 16,-66 12,-66 12,-62 16,-62 16,-58 84,-58 84,-94"/>
<polyline fill="none" stroke="turquoise" stroke-width="2" points="16,-90 20,-90 20,-86 16,-86 "/>
<polyline fill="none" stroke="turquoise" stroke-width="2" points="16,-66 20,-66 20,-62 16,-62 "/>
<text text-anchor="middle" x="50" y="-72.3" font-family="Times New Roman,serif" font-size="14.00">Validator</text>
</g>
<!-- 966f806d&#45;9561&#45;4f6b&#45;96dd&#45;87ade7e52426 -->
<g id="node3" class="node"><title>966f806d&#45;9561&#45;4f6b&#45;96dd&#45;87ade7e52426</title>
<polygon fill="turquoise" stroke="turquoise" points="225.5,-75 123.5,-75 123.5,-39 225.5,-39 225.5,-75"/>
<text text-anchor="middle" x="174.5" y="-53.3" font-family="Times New Roman,serif" font-size="14.00">TridentOptions</text>
</g>
<!-- b3215431&#45;8ea0&#45;48ca&#45;867f&#45;8ab0b4cfc161&#45;&gt;966f806d&#45;9561&#45;4f6b&#45;96dd&#45;87ade7e52426 -->
<g id="edge1" class="edge"><title>b3215431&#45;8ea0&#45;48ca&#45;867f&#45;8ab0b4cfc161&#45;&gt;966f806d&#45;9561&#45;4f6b&#45;96dd&#45;87ade7e52426</title>
<path fill="none" stroke="black" d="M84.1503,-70.8583C93.1846,-69.4571 103.26,-67.8943 113.298,-66.3374"/>
<polygon fill="black" stroke="black" points="113.938,-69.7801 123.284,-64.7886 112.865,-62.8628 113.938,-69.7801"/>
</g>
<!-- ce617051&#45;3505&#45;4b97&#45;a772&#45;bba88875aa8d -->
<g id="node9" class="node"><title>ce617051&#45;3505&#45;4b97&#45;a772&#45;bba88875aa8d</title>
<polygon fill="turquoise" stroke="turquoise" points="228,-151 133,-151 133,-155 121,-155 121,-115 228,-115 228,-151"/>
<polyline fill="none" stroke="turquoise" points="121,-151 133,-151 "/>
<text text-anchor="middle" x="174.5" y="-129.3" font-family="Times New Roman,serif" font-size="14.00">Set&lt;Validation&gt;</text>
</g>
<!-- b3215431&#45;8ea0&#45;48ca&#45;867f&#45;8ab0b4cfc161&#45;&gt;ce617051&#45;3505&#45;4b97&#45;a772&#45;bba88875aa8d -->
<g id="edge2" class="edge"><title>b3215431&#45;8ea0&#45;48ca&#45;867f&#45;8ab0b4cfc161&#45;&gt;ce617051&#45;3505&#45;4b97&#45;a772&#45;bba88875aa8d</title>
<path fill="none" stroke="black" d="M76.0141,-94.1775C84.876,-100.079 95.1079,-106.308 105,-111 107.063,-111.979 109.181,-112.93 111.335,-113.852"/>
<polygon fill="black" stroke="black" points="110.371,-117.237 120.956,-117.71 112.977,-110.739 110.371,-117.237"/>
</g>
<!-- 2793923d&#45;a99d&#45;49c2&#45;a7d8&#45;d945de32f79f -->
<!-- 7f3e2fb1&#45;e0ad&#45;413f&#45;b730&#45;875676374419 -->
<g id="node4" class="node"><title>7f3e2fb1&#45;e0ad&#45;413f&#45;b730&#45;875676374419</title>
<polygon fill="turquoise" stroke="turquoise" points="452,-151 264,-151 264,-115 452,-115 452,-151"/>
<text text-anchor="middle" x="358" y="-129.3" font-family="Times New Roman,serif" font-size="14.00">ValidationModule.validations()</text>
</g>
<!-- 4a17aba4&#45;be8c&#45;4dac&#45;91fc&#45;5e1a4b686247 -->
<g id="node5" class="node"><title>4a17aba4&#45;be8c&#45;4dac&#45;91fc&#45;5e1a4b686247</title>
<polygon fill="turquoise" stroke="turquoise" points="652,-112 488,-112 488,-76 652,-76 652,-112"/>
<text text-anchor="middle" x="570" y="-90.3" font-family="Times New Roman,serif" font-size="14.00">AndroidContextValidation</text>
</g>
<!-- 7f3e2fb1&#45;e0ad&#45;413f&#45;b730&#45;875676374419&#45;&gt;4a17aba4&#45;be8c&#45;4dac&#45;91fc&#45;5e1a4b686247 -->
<g id="edge4" class="edge"><title>7f3e2fb1&#45;e0ad&#45;413f&#45;b730&#45;875676374419&#45;&gt;4a17aba4&#45;be8c&#45;4dac&#45;91fc&#45;5e1a4b686247</title>
<path fill="none" stroke="black" d="M452.026,-115.724C460.621,-114.127 469.325,-112.511 477.902,-110.918"/>
<polygon fill="black" stroke="black" points="478.707,-114.329 487.899,-109.062 477.428,-107.446 478.707,-114.329"/>
</g>
<!-- 83cd915b&#45;c5a8&#45;443f&#45;9fac&#45;8ab6c38b9371 -->
<g id="node6" class="node"><title>83cd915b&#45;c5a8&#45;443f&#45;9fac&#45;8ab6c38b9371</title>
<polygon fill="turquoise" stroke="turquoise" points="634,-166 506,-166 506,-130 634,-130 634,-166"/>
<text text-anchor="middle" x="570" y="-144.3" font-family="Times New Roman,serif" font-size="14.00">PrimitivesValidation</text>
</g>
<!-- 7f3e2fb1&#45;e0ad&#45;413f&#45;b730&#45;875676374419&#45;&gt;83cd915b&#45;c5a8&#45;443f&#45;9fac&#45;8ab6c38b9371 -->
<g id="edge5" class="edge"><title>7f3e2fb1&#45;e0ad&#45;413f&#45;b730&#45;875676374419&#45;&gt;83cd915b&#45;c5a8&#45;443f&#45;9fac&#45;8ab6c38b9371</title>
<path fill="none" stroke="black" d="M452.026,-139.645C466.681,-140.691 481.651,-141.761 495.774,-142.77"/>
<polygon fill="black" stroke="black" points="495.668,-146.271 505.892,-143.492 496.167,-139.289 495.668,-146.271"/>
</g>
<!-- ccd346a8&#45;aaa9&#45;4e99&#45;9cd3&#45;da9a9726c8a2 -->
<g id="node7" class="node"><title>ccd346a8&#45;aaa9&#45;4e99&#45;9cd3&#45;da9a9726c8a2</title>
<polygon fill="turquoise" stroke="turquoise" points="798,-112 703,-112 703,-76 798,-76 798,-112"/>
<text text-anchor="middle" x="750.5" y="-90.3" font-family="Times New Roman,serif" font-size="14.00">BindingGraph</text>
</g>
<!-- 4a17aba4&#45;be8c&#45;4dac&#45;91fc&#45;5e1a4b686247&#45;&gt;ccd346a8&#45;aaa9&#45;4e99&#45;9cd3&#45;da9a9726c8a2 -->
<g id="edge6" class="edge"><title>4a17aba4&#45;be8c&#45;4dac&#45;91fc&#45;5e1a4b686247&#45;&gt;ccd346a8&#45;aaa9&#45;4e99&#45;9cd3&#45;da9a9726c8a2</title>
<path fill="none" stroke="black" d="M652.154,-94C665.816,-94 679.733,-94 692.611,-94"/>
<polygon fill="black" stroke="black" points="692.691,-97.5001 702.691,-94 692.69,-90.5001 692.691,-97.5001"/>
</g>
<!-- b8a90642&#45;c87a&#45;4895&#45;accf&#45;eb514cf9ceee -->
<g id="node8" class="node"><title>b8a90642&#45;c87a&#45;4895&#45;accf&#45;eb514cf9ceee</title>
<polygon fill="turquoise" stroke="turquoise" points="813,-166 688,-166 688,-130 813,-130 813,-166"/>
<text text-anchor="middle" x="750.5" y="-144.3" font-family="Times New Roman,serif" font-size="14.00">DiagnosticReporter</text>
</g>
<!-- 4a17aba4&#45;be8c&#45;4dac&#45;91fc&#45;5e1a4b686247&#45;&gt;b8a90642&#45;c87a&#45;4895&#45;accf&#45;eb514cf9ceee -->
<g id="edge7" class="edge"><title>4a17aba4&#45;be8c&#45;4dac&#45;91fc&#45;5e1a4b686247&#45;&gt;b8a90642&#45;c87a&#45;4895&#45;accf&#45;eb514cf9ceee</title>
<path fill="none" stroke="black" d="M630.934,-112.131C646.619,-116.876 663.662,-122.032 679.807,-126.916"/>
<polygon fill="black" stroke="black" points="679.139,-130.371 689.724,-129.916 681.166,-123.671 679.139,-130.371"/>
</g>
<!-- 83cd915b&#45;c5a8&#45;443f&#45;9fac&#45;8ab6c38b9371&#45;&gt;ccd346a8&#45;aaa9&#45;4e99&#45;9cd3&#45;da9a9726c8a2 -->
<g id="edge8" class="edge"><title>83cd915b&#45;c5a8&#45;443f&#45;9fac&#45;8ab6c38b9371&#45;&gt;ccd346a8&#45;aaa9&#45;4e99&#45;9cd3&#45;da9a9726c8a2</title>
<path fill="none" stroke="black" d="M630.934,-129.869C651.036,-123.788 673.369,-117.031 693.183,-111.037"/>
<polygon fill="black" stroke="black" points="694.429,-114.317 702.987,-108.071 692.402,-107.617 694.429,-114.317"/>
</g>
<!-- 83cd915b&#45;c5a8&#45;443f&#45;9fac&#45;8ab6c38b9371&#45;&gt;b8a90642&#45;c87a&#45;4895&#45;accf&#45;eb514cf9ceee -->
<g id="edge9" class="edge"><title>83cd915b&#45;c5a8&#45;443f&#45;9fac&#45;8ab6c38b9371&#45;&gt;b8a90642&#45;c87a&#45;4895&#45;accf&#45;eb514cf9ceee</title>
<path fill="none" stroke="black" d="M634.184,-148C648.226,-148 663.212,-148 677.575,-148"/>
<polygon fill="black" stroke="black" points="677.902,-151.5 687.902,-148 677.902,-144.5 677.902,-151.5"/>
</g>
<!-- ce617051&#45;3505&#45;4b97&#45;a772&#45;bba88875aa8d&#45;&gt;7f3e2fb1&#45;e0ad&#45;413f&#45;b730&#45;875676374419 -->
<g id="edge3" class="edge"><title>ce617051&#45;3505&#45;4b97&#45;a772&#45;bba88875aa8d&#45;&gt;7f3e2fb1&#45;e0ad&#45;413f&#45;b730&#45;875676374419</title>
<path fill="none" stroke="black" d="M228.485,-133C236.532,-133 245.061,-133 253.746,-133"/>
<polygon fill="black" stroke="black" points="253.993,-136.5 263.993,-133 253.993,-129.5 253.993,-136.5"/>
</g>
</g>
</svg>
