<svg xmlns="http://www.w3.org/2000/svg" xmlns:xlink="http://www.w3.org/1999/xlink" width="858" height="250" viewBox="0 0 857.8 249.8"><g id="graph0" class="graph" transform="scale(1.0 1.0) rotate(0) translate(14.4 235.4)"><title>dev.arunkumar.dagger.validator.di.TridentComponent</title><polygon fill="#fff" stroke="none" points="-14.4 14.4 -14.4 -235.4 843.4 -235.4 843.4 14.4 -14.4 14.4"/><text x="61.5" y="-7.8" font-family="Times New Roman,serif" font-size="14" text-anchor="middle">TridentComponent</text><g id="clust1" class="cluster"><title>cluster_Entry Points</title><polygon fill="none" stroke="#000" points="7 -50 7 -125 93 -125 93 -50 7 -50"/><text x="50" y="-109.8" font-family="Times New Roman,serif" font-size="14" text-anchor="middle">Entry Points</text></g><g id="clust2" class="cluster"><title>cluster_Dependency Graph</title><polygon fill="none" stroke="#000" points="105 -31 105 -213 821 -213 821 -31 105 -31"/><text x="167.5" y="-197.8" font-family="Times New Roman,serif" font-size="14" text-anchor="middle">Dependency Graph</text></g><g id="clust3" class="cluster"><title>cluster_Set&lt;Validation&gt;</title><path fill="none" stroke="#000" d="M125,-107C125,-107 448,-107 448,-107 454,-107 460,-113 460,-119 460,-119 460,-170 460,-170 460,-176 454,-182 448,-182 448,-182 125,-182 125,-182 119,-182 113,-176 113,-170 113,-170 113,-119 113,-119 113,-113 119,-107 125,-107"/><text x="286.5" y="-166.8" font-family="Times New Roman,serif" font-size="14" text-anchor="middle">Set&lt;Validation&gt;</text></g><g id="node1" class="node"><title>b3215431-8ea0-48ca-867f-8ab0b4cfc161</title><polygon fill="#40e0d0" stroke="#40e0d0" stroke-width="2" points="84 -94 16 -94 16 -90 12 -90 12 -86 16 -86 16 -66 12 -66 12 -62 16 -62 16 -58 84 -58 84 -94"/><polyline fill="none" stroke="#40e0d0" stroke-width="2" points="16 -90 20 -90 20 -86 16 -86"/><polyline fill="none" stroke="#40e0d0" stroke-width="2" points="16 -66 20 -66 20 -62 16 -62"/><text x="50" y="-72.3" font-family="Times New Roman,serif" font-size="14" text-anchor="middle">Validator</text></g><g id="node3" class="node"><title>966f806d-9561-4f6b-96dd-87ade7e52426</title><polygon fill="#40e0d0" stroke="#40e0d0" points="225.5 -75 123.5 -75 123.5 -39 225.5 -39 225.5 -75"/><text x="174.5" y="-53.3" font-family="Times New Roman,serif" font-size="14" text-anchor="middle">TridentOptions</text></g><g id="edge1" class="edge"><title>b3215431-8ea0-48ca-867f-8ab0b4cfc161-&gt;966f806d-9561-4f6b-96dd-87ade7e52426</title><path fill="none" stroke="#000" d="M84.1503,-70.8583C93.1846,-69.4571 103.26,-67.8943 113.298,-66.3374"/><polygon fill="#000" stroke="#000" points="113.938 -69.78 123.284 -64.789 112.865 -62.863 113.938 -69.78"/></g><g id="node9" class="node"><title>ce617051-3505-4b97-a772-bba88875aa8d</title><polygon fill="#40e0d0" stroke="#40e0d0" points="228 -151 133 -151 133 -155 121 -155 121 -115 228 -115 228 -151"/><polyline fill="none" stroke="#40e0d0" points="121 -151 133 -151"/><text x="174.5" y="-129.3" font-family="Times New Roman,serif" font-size="14" text-anchor="middle">Set&lt;Validation&gt;</text></g><g id="edge2" class="edge"><title>b3215431-8ea0-48ca-867f-8ab0b4cfc161-&gt;ce617051-3505-4b97-a772-bba88875aa8d</title><path fill="none" stroke="#000" d="M76.0141,-94.1775C84.876,-100.079 95.1079,-106.308 105,-111 107.063,-111.979 109.181,-112.93 111.335,-113.852"/><polygon fill="#000" stroke="#000" points="110.371 -117.237 120.956 -117.71 112.977 -110.739 110.371 -117.237"/></g><g id="node4" class="node"><title>7f3e2fb1-e0ad-413f-b730-875676374419</title><polygon fill="#40e0d0" stroke="#40e0d0" points="452 -151 264 -151 264 -115 452 -115 452 -151"/><text x="358" y="-129.3" font-family="Times New Roman,serif" font-size="14" text-anchor="middle">ValidationModule.validations()</text></g><g id="node5" class="node"><title>4a17aba4-be8c-4dac-91fc-5e1a4b686247</title><polygon fill="#40e0d0" stroke="#40e0d0" points="652 -112 488 -112 488 -76 652 -76 652 -112"/><text x="570" y="-90.3" font-family="Times New Roman,serif" font-size="14" text-anchor="middle">AndroidContextValidation</text></g><g id="edge4" class="edge"><title>7f3e2fb1-e0ad-413f-b730-875676374419-&gt;4a17aba4-be8c-4dac-91fc-5e1a4b686247</title><path fill="none" stroke="#000" d="M452.026,-115.724C460.621,-114.127 469.325,-112.511 477.902,-110.918"/><polygon fill="#000" stroke="#000" points="478.707 -114.329 487.899 -109.062 477.428 -107.446 478.707 -114.329"/></g><g id="node6" class="node"><title>83cd915b-c5a8-443f-9fac-8ab6c38b9371</title><polygon fill="#40e0d0" stroke="#40e0d0" points="634 -166 506 -166 506 -130 634 -130 634 -166"/><text x="570" y="-144.3" font-family="Times New Roman,serif" font-size="14" text-anchor="middle">PrimitivesValidation</text></g><g id="edge5" class="edge"><title>7f3e2fb1-e0ad-413f-b730-875676374419-&gt;83cd915b-c5a8-443f-9fac-8ab6c38b9371</title><path fill="none" stroke="#000" d="M452.026,-139.645C466.681,-140.691 481.651,-141.761 495.774,-142.77"/><polygon fill="#000" stroke="#000" points="495.668 -146.271 505.892 -143.492 496.167 -139.289 495.668 -146.271"/></g><g id="node7" class="node"><title>ccd346a8-aaa9-4e99-9cd3-da9a9726c8a2</title><polygon fill="#40e0d0" stroke="#40e0d0" points="798 -112 703 -112 703 -76 798 -76 798 -112"/><text x="750.5" y="-90.3" font-family="Times New Roman,serif" font-size="14" text-anchor="middle">BindingGraph</text></g><g id="edge6" class="edge"><title>4a17aba4-be8c-4dac-91fc-5e1a4b686247-&gt;ccd346a8-aaa9-4e99-9cd3-da9a9726c8a2</title><path fill="none" stroke="#000" d="M652.154,-94C665.816,-94 679.733,-94 692.611,-94"/><polygon fill="#000" stroke="#000" points="692.691 -97.5 702.691 -94 692.69 -90.5 692.691 -97.5"/></g><g id="node8" class="node"><title>b8a90642-c87a-4895-accf-eb514cf9ceee</title><polygon fill="#40e0d0" stroke="#40e0d0" points="813 -166 688 -166 688 -130 813 -130 813 -166"/><text x="750.5" y="-144.3" font-family="Times New Roman,serif" font-size="14" text-anchor="middle">DiagnosticReporter</text></g><g id="edge7" class="edge"><title>4a17aba4-be8c-4dac-91fc-5e1a4b686247-&gt;b8a90642-c87a-4895-accf-eb514cf9ceee</title><path fill="none" stroke="#000" d="M630.934,-112.131C646.619,-116.876 663.662,-122.032 679.807,-126.916"/><polygon fill="#000" stroke="#000" points="679.139 -130.371 689.724 -129.916 681.166 -123.671 679.139 -130.371"/></g><g id="edge8" class="edge"><title>83cd915b-c5a8-443f-9fac-8ab6c38b9371-&gt;ccd346a8-aaa9-4e99-9cd3-da9a9726c8a2</title><path fill="none" stroke="#000" d="M630.934,-129.869C651.036,-123.788 673.369,-117.031 693.183,-111.037"/><polygon fill="#000" stroke="#000" points="694.429 -114.317 702.987 -108.071 692.402 -107.617 694.429 -114.317"/></g><g id="edge9" class="edge"><title>83cd915b-c5a8-443f-9fac-8ab6c38b9371-&gt;b8a90642-c87a-4895-accf-eb514cf9ceee</title><path fill="none" stroke="#000" d="M634.184,-148C648.226,-148 663.212,-148 677.575,-148"/><polygon fill="#000" stroke="#000" points="677.902 -151.5 687.902 -148 677.902 -144.5 677.902 -151.5"/></g><g id="edge3" class="edge"><title>ce617051-3505-4b97-a772-bba88875aa8d-&gt;7f3e2fb1-e0ad-413f-b730-875676374419</title><path fill="none" stroke="#000" d="M228.485,-133C236.532,-133 245.061,-133 253.746,-133"/><polygon fill="#000" stroke="#000" points="253.993 -136.5 263.993 -133 253.993 -129.5 253.993 -136.5"/></g></g></svg>