<?xml version="1.0" standalone="no"?>
<!DOCTYPE svg PUBLIC "-//W3C//DTD SVG 20010904//EN"
 "http://www.w3.org/TR/2001/REC-SVG-20010904/DTD/svg10.dtd">
<svg version="1.0" xmlns="http://www.w3.org/2000/svg"
 width="512.000000pt" height="512.000000pt" viewBox="0 0 512.000000 512.000000"
 preserveAspectRatio="xMidYMid meet">
<metadata>
Created by potrace 1.11, written by Peter Selinger 2001-2013
</metadata>
<g transform="translate(0.000000,512.000000) scale(0.100000,-0.100000)"
fill="#000000" stroke="none">
<path d="M2510 4261 c0 -6 5 -13 10 -16 15 -9 12 -25 -5 -25 -13 0 -14 -4 -5
-21 16 -28 7 -33 -31 -20 -43 15 -52 14 -45 -4 8 -22 -21 -19 -51 5 -24 18
-63 27 -63 14 0 -3 5 -14 10 -24 10 -19 9 -19 -32 0 -46 21 -88 26 -88 10 0
-5 9 -14 21 -21 15 -7 18 -14 11 -21 -8 -8 -24 -6 -53 6 -26 11 -46 13 -51 8
-6 -6 -6 -12 1 -16 17 -11 13 -53 -5 -60 -26 -10 -66 -6 -124 13 -36 12 -59
15 -67 9 -7 -5 -21 -7 -32 -3 -30 9 -34 -11 -6 -29 28 -18 34 -42 9 -32 -9 3
-34 9 -57 13 -41 6 -41 5 -25 -13 16 -18 15 -19 -28 -16 -45 4 -61 -11 -25
-23 11 -3 25 -13 32 -22 12 -14 9 -15 -29 -8 -47 8 -52 1 -20 -32 18 -19 19
-23 5 -23 -8 0 -28 5 -43 10 -39 15 -49 0 -29 -40 16 -31 16 -37 0 -99 -10
-36 -27 -82 -39 -101 -11 -19 -22 -42 -23 -50 -1 -8 -9 -55 -19 -105 -13 -72
-15 -128 -11 -280 3 -104 10 -217 16 -250 14 -75 62 -235 71 -235 4 0 12 11
18 25 7 14 25 34 42 43 25 14 30 23 30 56 0 26 8 50 25 72 27 35 60 146 70
239 8 66 27 119 53 148 62 69 315 116 622 117 230 0 377 -26 524 -93 78 -36
102 -74 98 -160 -3 -75 2 -86 66 -172 32 -42 50 -79 62 -125 15 -60 19 -67 58
-87 23 -12 57 -25 76 -28 31 -6 36 -4 49 22 30 58 50 229 44 378 -9 213 -46
361 -139 555 -42 87 -63 117 -122 175 -60 60 -91 81 -206 138 -74 37 -173 78
-220 91 -101 29 -167 56 -217 90 -23 16 -41 22 -48 16 -6 -5 -16 -5 -25 0 -19
12 -40 13 -40 1z"/>
<path d="M2028 2873 c-21 -8 -38 -19 -38 -24 0 -5 74 -9 165 -9 171 0 198 7
130 36 -47 19 -208 18 -257 -3z"/>
<path d="M2885 2875 c-5 -2 -31 -6 -57 -10 -95 -13 -47 -25 99 -25 81 0 143 4
138 8 -22 19 -148 38 -180 27z"/>
<path d="M2734 2789 c-7 -11 12 -29 31 -29 6 0 30 6 54 13 33 10 40 15 27 20
-28 11 -104 8 -112 -4z"/>
<path d="M3026 2793 c-6 -6 104 -53 125 -53 15 0 10 19 -11 40 -20 20 -98 29
-114 13z"/>
<path d="M1749 2769 c-18 -18 -21 -30 -17 -85 3 -49 1 -64 -10 -64 -9 0 -11
-7 -6 -22 4 -13 12 -47 18 -77 20 -95 54 -65 44 38 -5 46 -3 48 26 60 17 7 74
15 126 18 52 2 104 9 115 14 11 5 63 10 115 11 l95 3 0 60 0 60 -242 3 c-236
3 -243 2 -264 -19z"/>
<path d="M2314 2775 c25 -19 46 -19 46 0 0 10 -10 15 -32 15 -31 -1 -32 -1
-14 -15z"/>
<path d="M3323 2743 c4 -27 9 -137 13 -245 7 -185 14 -229 29 -175 16 56 30
78 61 98 28 17 32 24 24 39 -6 10 -10 33 -10 50 0 20 -6 33 -17 37 -10 4 -21
11 -25 17 -11 16 -9 144 2 151 20 12 9 32 -29 53 -21 12 -42 22 -46 22 -4 0
-5 -21 -2 -47z"/>
<path d="M3493 2765 c-25 -17 -37 -55 -18 -55 8 0 17 5 20 10 5 8 11 7 21 -1
10 -8 12 -28 9 -73 -5 -61 -5 -61 9 -26 26 62 17 160 -14 160 -3 0 -15 -7 -27
-15z"/>
<path d="M1617 2723 c-19 -19 2 -115 47 -213 16 -34 16 -33 14 71 -3 89 -6
111 -22 128 -20 22 -28 25 -39 14z"/>
<path d="M2446 2558 l-17 -33 20 24 c18 20 27 41 18 41 -1 0 -11 -15 -21 -32z"/>
<path d="M2670 1702 c-82 -38 -146 -41 -231 -7 -39 15 -73 24 -77 20 -8 -7 4
-17 73 -58 29 -17 51 -39 58 -57 13 -34 19 -36 37 -15 11 14 15 14 33 -2 19
-17 20 -17 31 1 25 42 71 88 108 107 21 11 38 24 38 29 0 14 -7 12 -70 -18z"/>
<path d="M1752 1493 c-64 -61 -76 -135 -42 -244 51 -166 180 -303 390 -417 82
-44 143 -67 205 -76 l40 -7 -45 20 c-152 65 -320 169 -395 245 -109 110 -158
216 -159 345 -1 82 -1 84 32 110 30 26 43 61 22 61 -5 0 -27 -17 -48 -37z"/>
<path d="M3155 1398 c-11 -28 -9 -59 8 -123 16 -54 16 -65 2 -120 -24 -95 -63
-162 -138 -242 -38 -40 -63 -73 -56 -73 23 0 174 162 197 213 48 102 50 168
13 298 -14 46 -21 59 -26 47z"/>
</g>
</svg>
